<svg width="800" height="450" viewBox="0 0 800 450" fill="none" xmlns="http://www.w3.org/2000/svg"><g clip-path="url(#clip0_3788_36942)"><path fill="#F6AA72" d="M0 0h800v450H0z"/><circle cx="360.08" cy="131.241" r="21.815" transform="rotate(-63.967 360.08 131.241)" fill="#000"/><circle cx="382.481" cy="114.678" r="21.815" transform="rotate(-67.595 382.481 114.678)" fill="#000"/><circle cx="411.009" cy="118.307" r="21.815" transform="rotate(-63.967 411.009 118.307)" fill="#000"/><circle cx="428.301" cy="138.019" r="21.815" transform="rotate(-63.967 428.301 138.019)" fill="#000"/><ellipse cx="356.822" cy="152.753" rx="21.863" ry="21.815" transform="rotate(-63.967 356.822 152.753)" fill="#000"/><circle cx="394.265" cy="166.4" r="37.8" transform="rotate(-12.09 394.265 166.4)" fill="#8A6B59"/><circle cx="360.175" cy="169.148" r="11.017" transform="rotate(-35.242 360.175 169.148)" fill="#8A6B59"/><circle cx="428.346" cy="163.652" r="11.017" transform="rotate(-35.242 428.346 163.652)" fill="#8A6B59"/><path d="M424.867 133.742a45.607 45.607 0 0111.333 13.944 44.526 44.526 0 011.977 4.304l-44.784 3.603-44.785 3.604c.334-1.51.746-3.005 1.236-4.48a45.618 45.618 0 018.928-15.593 46.998 46.998 0 0114.359-11.102 47.974 47.974 0 0117.603-4.921c6.137-.5 12.311.182 18.167 2.008a47.002 47.002 0 0115.966 8.633z" fill="#000"/><path d="M362.325 168.494l63.798-5.195-.59-7.246c-.597-7.331-7.024-12.79-14.355-12.193l-37.25 3.033c-7.331.597-12.79 7.024-12.193 14.355l.59 7.246z" fill="#8A6B59"/><path d="M268.115 240.542c-4.935-26.508 18.449-49.625 44.898-44.385l63.764 12.63a94.602 94.602 0 0040.696-.865l58.46-14.186c24.53-5.952 47.1 15.237 42.706 40.093l-18.494 104.629-218.075-22.951-13.955-74.965z" fill="#8591FD"/><path d="M457.788 258.501c-14.524-16.374-13.023-41.422 3.351-55.945 16.375-14.524 41.422-13.023 55.946 3.351l-59.297 52.594zm109.418 3.914c14.523 16.375 13.023 41.422-3.352 55.946-16.374 14.523-41.422 13.023-55.945-3.351l59.297-52.595zm-59.297 52.595l-50.121-56.509 59.297-52.594 50.121 56.508-59.297 52.595z" fill="#8591FD"/><rect x="376.589" y="186.208" width="42.932" height="75.984" rx="2" transform="rotate(-5.366 376.589 186.208)" fill="#fff"/><rect width="8.641" height="14.948" rx="4.321" transform="scale(-1 1) rotate(5.366 -2223.236 -4074.198)" fill="#000"/><circle cx="386.892" cy="195.251" r="2.13" transform="rotate(-5.366 386.892 195.251)" fill="#fff"/><path d="M443.558 221.559l64.816 27.766-8.777 51.395-56.081-47.46-48.596-26.074c4.028-10.751 15.34-12.599 21.369-12.653 6.03-.055 17.083.865 27.269 7.026z" fill="#8A6B59"/><path fill-rule="evenodd" clip-rule="evenodd" d="M549.094 265.999l-102.749-43.25-24.291 48.062 86.012 61.94 5.148 3.495 5.017 2.758c20.159 8.523 43.411-.911 51.934-21.071 8.523-20.159-.911-43.411-21.071-51.934z" fill="#8591FD"/><path d="M335.264 261.762c14.379-16.502 12.657-41.536-3.845-55.914s-41.536-12.656-55.914 3.846l59.759 52.068zm-105.924.916c-14.379 16.502-12.657 41.536 3.845 55.914s41.536 12.657 55.914-3.846l-59.759-52.068zm59.759 52.068l46.165-52.984-59.759-52.068-46.165 52.984 59.759 52.068z" fill="#8591FD"/><path d="M362.943 232.638l-69.24 13.337-2.362 52.085 64.897-34.438 53.032-15.135c-1.648-11.362-12.308-15.574-18.187-16.911-5.88-1.336-16.876-2.789-28.14 1.062z" fill="#8A6B59"/><path fill-rule="evenodd" clip-rule="evenodd" d="M250.368 253.602l109.6-20.394 13.506 52.131-97.223 42.217-5.774 2.319-5.489 1.628c-21.511 4.037-42.223-10.129-46.26-31.641-4.038-21.511 10.128-42.223 31.64-46.26z" fill="#8591FD"/><rect x="243.867" y="279.986" width="364.511" height="73.069" rx="36.534" fill="#fff"/><circle r="11.959" transform="matrix(1 0 0 -1 361.695 316.52)" fill="#000"/><circle r="11.959" transform="matrix(1 0 0 -1 392.707 316.52)" fill="#000"/><circle r="11.959" transform="matrix(1 0 0 -1 423.719 316.52)" fill="#000"/><circle r="11.959" transform="matrix(1 0 0 -1 454.731 316.52)" fill="#000"/><circle r="11.959" transform="matrix(1 0 0 -1 485.743 316.52)" fill="#000"/><circle r="11.959" transform="matrix(1 0 0 -1 516.754 316.52)" fill="#000"/><rect x="177.734" y="239.491" width="154.058" height="154.058" rx="33" fill="#000"/><g clip-path="url(#clip1_3788_36942)"><path d="M290.518 297.385c-.556.428-10.368 5.91-10.368 18.098 0 14.098 12.486 19.085 12.86 19.209-.058.304-1.984 6.83-6.583 13.48-4.102 5.852-8.385 11.695-14.901 11.695s-8.193-3.753-15.715-3.753c-7.33 0-9.937 3.877-15.897 3.877-5.96 0-10.119-5.415-14.9-12.065-5.539-7.809-10.014-19.941-10.014-31.455 0-18.468 12.112-28.263 24.032-28.263 6.334 0 11.614 4.124 15.591 4.124 3.785 0 9.688-4.371 16.893-4.371 2.731 0 12.544.247 19.002 9.424zm-22.422-17.242c2.98-3.506 5.088-8.369 5.088-13.233 0-.675-.058-1.359-.182-1.91-4.849.18-10.617 3.202-14.096 7.201-2.731 3.078-5.28 7.942-5.28 12.873 0 .741.125 1.481.182 1.719.307.057.805.123 1.304.123 4.35 0 9.821-2.888 12.984-6.773z" fill="#fff"/></g><path d="M554.421 339.061h22.062c3.087 0 4.595-1.531 4.595-4.881v-17.038c0-3.015-1.245-4.546-3.805-4.809v-5.552c0-8.614-5.791-12.802-11.821-12.802-6.03 0-11.821 4.188-11.821 12.802v5.623c-2.393.359-3.804 1.891-3.804 4.738v17.038c0 3.35 1.531 4.881 4.594 4.881zm3.781-32.687c0-5.144 3.278-7.992 7.25-7.992s7.251 2.848 7.251 7.992v5.935h-14.501v-5.935z" fill="#FA7B60"/><path d="M570.323 321.419l-9.741 9.742m0-9.742l9.741 9.742" stroke="#fff" stroke-width="4" stroke-linecap="round" stroke-linejoin="round"/></g><defs><clipPath id="clip0_3788_36942"><path fill="#fff" d="M0 0h800v450H0z"/></clipPath><clipPath id="clip1_3788_36942"><path fill="#fff" transform="translate(215 265)" d="M0 0h78v95H0z"/></clipPath></defs></svg>